<svg width="58" height="57" viewBox="0 0 58 57" fill="none" xmlns="http://www.w3.org/2000/svg">
<path fill-rule="evenodd" clip-rule="evenodd" d="M29.2772 55C44.0264 55 56 42.9211 56 28C56 13.0789 44.0264 1 29.2772 1C14.528 1 2.55444 13.0789 2.55444 28C2.55444 42.9211 14.528 55 29.2772 55ZM29.2772 56C44.5881 56 57 43.464 57 28C57 12.536 44.5881 0 29.2772 0C13.9664 0 1.55444 12.536 1.55444 28C1.55444 43.464 13.9664 56 29.2772 56Z" fill="#F2D7CA"/>
<path fill-rule="evenodd" clip-rule="evenodd" d="M29.2772 0L5.26862 42H53.2859L29.2772 0ZM29.2772 2.01502L6.9921 41H51.5624L29.2772 2.01502Z" fill="#F2D7CA"/>
<path fill-rule="evenodd" clip-rule="evenodd" d="M56 1H2V55H56V1ZM1 0V56H57V0H1Z" fill="#F2D7CA"/>
<path fill-rule="evenodd" clip-rule="evenodd" d="M1.55442 56L57 -1.41263e-05L57.7036 0.710602L2.258 56.7106L1.55442 56Z" fill="#F2D7CA"/>
<path fill-rule="evenodd" clip-rule="evenodd" d="M57 56L1.55447 -1.41263e-05L0.850891 0.710602L56.2964 56.7106L57 56Z" fill="#F2D7CA"/>
<path fill-rule="evenodd" clip-rule="evenodd" d="M23.9329 11.0777L37.3743 41.6191L47.0311 41.6528L33.5395 11L23.9329 11.0777Z" fill="#36244D"/>
<path fill-rule="evenodd" clip-rule="evenodd" d="M23.2023 36.1336C23.2023 39.5656 20.6941 42.3486 17.6011 42.3486C14.5081 42.3486 11.9999 39.5656 11.9999 36.1336C11.9999 32.7016 14.5081 29.9173 17.6011 29.9173C20.6941 29.9173 23.2023 32.7016 23.2023 36.1336Z" fill="#36244D"/>
</svg>
