<svg width="48" height="48" viewBox="0 0 48 48" fill="none" xmlns="http://www.w3.org/2000/svg">
<path fill-rule="evenodd" clip-rule="evenodd" d="M47 1H1V47H47V1ZM0 0V48H48V0H0Z" fill="#F2D4CA"/>
<path fill-rule="evenodd" clip-rule="evenodd" d="M24 47C36.7025 47 47 36.7025 47 24C47 11.2975 36.7025 1 24 1C11.2975 1 1 11.2975 1 24C1 36.7025 11.2975 47 24 47ZM24 48C37.2548 48 48 37.2548 48 24C48 10.7452 37.2548 0 24 0C10.7452 0 0 10.7452 0 24C0 37.2548 10.7452 48 24 48Z" fill="#F2D4CA"/>
<path fill-rule="evenodd" clip-rule="evenodd" d="M23.9999 0L3.21533 36H44.7845L23.9999 0ZM23.9999 2L4.94738 35H43.0525L23.9999 2Z" fill="#F2D4CA"/>
<path fill-rule="evenodd" clip-rule="evenodd" d="M1.32635e-05 47.1429L47.1429 4.65512e-05L47.85 0.707153L0.70712 47.85L1.32635e-05 47.1429Z" fill="#F2D4CA"/>
<path fill-rule="evenodd" clip-rule="evenodd" d="M47.1429 48L4.65512e-05 0.857131L0.707153 0.150024L47.85 47.2929L47.1429 48Z" fill="#F2D4CA"/>
<path fill-rule="evenodd" clip-rule="evenodd" d="M18.8805 8.6399L32.4236 35.5825L42.1535 35.6122L28.5599 8.57141L18.8805 8.6399Z" fill="#36244D"/>
<path fill-rule="evenodd" clip-rule="evenodd" d="M18.1443 30.7433C18.1443 33.7709 15.6171 36.226 12.5007 36.226C9.38434 36.226 6.85718 33.7709 6.85718 30.7433C6.85718 27.7158 9.38434 25.2595 12.5007 25.2595C15.6171 25.2595 18.1443 27.7158 18.1443 30.7433Z" fill="#36244D"/>
</svg>
